<svg version="1" xmlns="http://www.w3.org/2000/svg" width="328" height="328" viewBox="0 0 246.000000 246.000000"><path d="M110 .5c-.8.2-4.9.9-9 1.5C58.4 8.9 19.8 42.5 6.1 84.7 1.6 98.7.5 106.1.5 123c0 9.2.6 18.4 1.4 22.5 9.9 50 48.6 88.7 98.6 98.6 9.2 1.8 35.8 1.8 45 0 50-9.9 88.7-48.6 98.6-98.6 1.8-9.2 1.8-35.8 0-45C234.5 52 197.7 13.8 150 2.9c-7.8-1.8-35.6-3.5-40-2.4zm40.2 16.8c30.8 8.1 56.1 28.6 70.3 57.2 3.1 6.2 6.7 15.4 8.2 21 2.4 9 2.7 11.7 2.7 27.5 0 15.7-.3 18.5-2.7 27.2-8.3 31.1-28.7 56.2-57.2 70.3-6.2 3.1-15.4 6.7-21 8.2-9 2.4-11.7 2.7-27.5 2.7-15.7 0-18.5-.3-27.2-2.7-38.4-10.3-68.3-40.1-78.5-78.2-2.4-9-2.7-11.7-2.7-27.5s.3-18.5 2.7-27.5c11.1-41.2 44.4-72 86.4-80 12.1-2.3 34.1-1.4 46.5 1.8z"/><path d="M78 122.9V193h26.8c38.3 0 48.8-1.7 60.9-9.7 6.7-4.4 9.9-8.2 13.5-16 3.5-7.5 4.6-17.9 2.9-26.6-2.4-11.2-12.2-21.7-23.8-25.4-5.8-1.8-6.4-2.6-3.2-4.4 4-2.1 11.1-9.3 13.1-13.4 2.9-5.6 3.5-15.6 1.4-22.8-2-7-6.3-12-13-15.4-9.8-5-13.1-5.4-46.8-6L78 52.7v70.2zm60.2-48.7c1.6 3 1.6 18.5 0 21.5-1.2 2.2-1.9 2.3-13.2 2.3h-12V72h12c11.3 0 12 .1 13.2 2.2zm.1 53.3c1.1 3.8 1.5 36.8.4 41.7l-.8 3.8H113v-49.1l12.2.3 12.2.3.9 3z"/></svg>